# xmcd
#
# Track frame offsets:
#	150
#	16130
#	30505
#	47547
#	61731
#	78462
#	94774
#	110829
#	125583
#	141821
#
# Disc length: 2093 seconds
#
# Revision: 1
# Processed by: cddbd v1.5.1PL0 Copyright (c) Steve Scherf et al.
# Submitted via: EasyCDDAExtractor 6.2.0.3
#
DISCID=7b082b0a
DTITLE=Chiclete com Banana - Especial Jornal A Gazeta
DYEAR=1997
DGENRE=Axé
TTITLE0=Preciso Dormir, Princesa
TTITLE1=Macacos Me Mordam
TTITLE2=Batuque No Cais
TTITLE3=Acredito Se Quiser
TTITLE4=Maracujá Pro Bebê
TTITLE5=Trópico Banana
TTITLE6=De Bem Com A Vida
TTITLE7=Capoeira Larará(Meia Lua Inteira)
TTITLE8=Viagem Alucinante
TTITLE9=Foi Deus
EXTD=
EXTT0=
EXTT1=
EXTT2=
EXTT3=
EXTT4=
EXTT5=
EXTT6=
EXTT7=
EXTT8=
EXTT9=
PLAYORDER=
